<svg width="20" height="20" viewBox="0 0 20 20" fill="none" xmlns="http://www.w3.org/2000/svg">
<g clip-path="url(#clip0_25_261)">
<path d="M9.43333 13.3147C9.13333 13.496 8.82333 13.674 8.49433 13.852C3.22767 10.9223 0.666667 8.139 0.666667 5.34333C0.666667 3.05733 2.279 1.33333 4.41667 1.33333C5.90326 1.32193 7.31079 2.0018 8.226 3.17333C8.28831 3.26293 8.39053 3.31636 8.49967 3.31636C8.6088 3.31636 8.71103 3.26293 8.77333 3.17333C9.68888 2.00186 11.0966 1.32203 12.5833 1.33333C13.8158 1.32233 14.9682 1.94227 15.6383 2.97667C15.7029 3.07831 15.8172 3.13723 15.9375 3.13081C16.0577 3.12439 16.1651 3.05363 16.2185 2.9457C16.2719 2.83777 16.2629 2.70944 16.195 2.61C15.4029 1.387 14.0404 0.653912 12.5833 0.666668C11.0303 0.6606 9.54711 1.31139 8.5 2.45833C7.45289 1.31139 5.96969 0.6606 4.41667 0.666668C1.94 0.666668 0 2.721 0 5.34333C0 8.40267 2.673 11.3767 8.18067 14.4397C8.27995 14.4912 8.39014 14.5182 8.502 14.5183C8.6162 14.5184 8.72857 14.4896 8.82867 14.4347C9.15567 14.2527 9.47267 14.0707 9.77933 13.8853C9.93692 13.7898 9.98721 13.5846 9.89167 13.427C9.79612 13.2694 9.59092 13.2191 9.43333 13.3147Z" fill="#252525"/>
<path d="M1.33331 5.34333C1.33331 5.52743 1.48255 5.67667 1.66665 5.67667C1.85074 5.67667 1.99998 5.52743 1.99998 5.34333C1.99998 4.04567 2.84698 2.66667 4.41665 2.66667C4.60074 2.66667 4.74998 2.51743 4.74998 2.33333C4.74998 2.14924 4.60074 2 4.41665 2C2.41398 2 1.33331 3.72233 1.33331 5.34333Z" fill="#252525"/>
<path d="M14.6666 3.66666C12.047 3.66534 9.81452 5.56745 9.39985 8.15408C8.98518 10.7407 10.5112 13.2454 13 14.063V15.3333C13.0015 15.8075 13.2555 16.245 13.6666 16.4813V18.3333C13.6666 18.8856 14.1144 19.3333 14.6666 19.3333C15.2189 19.3333 15.6666 18.8856 15.6666 18.3333V16.4813C16.0778 16.245 16.3318 15.8075 16.3333 15.3333V14.063C18.8221 13.2454 20.3481 10.7407 19.9334 8.15408C19.5188 5.56745 17.2863 3.66534 14.6666 3.66666ZM15 18.3333C15 18.5174 14.8507 18.6667 14.6666 18.6667C14.4825 18.6667 14.3333 18.5174 14.3333 18.3333V16.6667H15V18.3333ZM15.6666 15.3333C15.6666 15.7015 15.3682 16 15 16H14.3333C13.9651 16 13.6666 15.7015 13.6666 15.3333V14.236C14.327 14.3658 15.0063 14.3658 15.6666 14.236V15.3333ZM15 13.6497V13C15 12.8159 14.8507 12.6667 14.6666 12.6667C14.4825 12.6667 14.3333 12.8159 14.3333 13V13.6497C12.0225 13.4818 10.1848 11.6441 10.017 9.33332H10.6666C10.8507 9.33332 11 9.18409 11 8.99999C11 8.8159 10.8507 8.66666 10.6666 8.66666H10.017C10.1848 6.3559 12.0225 4.51817 14.3333 4.35032V4.99999C14.3333 5.18409 14.4825 5.33332 14.6666 5.33332C14.8507 5.33332 15 5.18409 15 4.99999V4.35032C17.3107 4.51817 19.1485 6.3559 19.3163 8.66666H18.6666C18.4825 8.66666 18.3333 8.8159 18.3333 8.99999C18.3333 9.18409 18.4825 9.33332 18.6666 9.33332H19.3163C19.1485 11.6441 17.3107 13.4818 15 13.6497Z" fill="#252525"/>
<path d="M17.0976 6.09766L15.3396 7.85566C15.1365 7.73313 14.9039 7.66782 14.6666 7.66666C13.9303 7.66666 13.3333 8.26361 13.3333 8.99999C13.3333 9.73637 13.9303 10.3333 14.6666 10.3333C15.403 10.3333 16 9.73637 16 8.99999C15.9988 8.76272 15.9335 8.53018 15.811 8.32699L17.569 6.56899C17.6953 6.4382 17.6935 6.2303 17.5649 6.10172C17.4363 5.97314 17.2284 5.97134 17.0976 6.09766ZM14.6666 9.66666C14.3649 9.66688 14.1006 9.46438 14.0223 9.17297C13.944 8.88155 14.0713 8.57388 14.3325 8.42285C14.5937 8.27181 14.9238 8.31508 15.1373 8.52833C15.3281 8.71887 15.3853 9.00556 15.2823 9.25472C15.1792 9.50389 14.9363 9.66647 14.6666 9.66666Z" fill="#252525"/>
</g>
<defs>
<clipPath id="clip0_25_261">
<rect width="20" height="20" fill="white"/>
</clipPath>
</defs>
</svg>
