<svg width="20" height="20" viewBox="0 0 20 20" fill="none" xmlns="http://www.w3.org/2000/svg">
<g clip-path="url(#clip0_25_191)">
<path d="M12.3628 2.23159C12.3242 2.24555 12.2887 2.26699 12.2584 2.29466C12.2281 2.32234 12.2035 2.35572 12.1861 2.3929C12.1687 2.43007 12.1588 2.47031 12.1569 2.51132C12.1551 2.55233 12.1613 2.5933 12.1753 2.6319C12.4134 3.19853 12.5759 3.79407 12.6584 4.40315C12.6663 4.48574 12.7067 4.56182 12.7706 4.61465C12.8346 4.66748 12.9169 4.69274 12.9995 4.68487C13.0821 4.67699 13.1582 4.63663 13.211 4.57267C13.2639 4.5087 13.2891 4.42636 13.2812 4.34377C13.1945 3.68201 13.0202 3.03469 12.7631 2.41877C12.7349 2.34087 12.6768 2.27738 12.6017 2.24228C12.5267 2.20718 12.4407 2.20333 12.3628 2.23159Z" fill="#252525"/>
<path d="M18.125 8.02658V4.37501C18.125 4.34376 18.0769 1.25658 13.9022 1.15314C13.2405 1.13209 12.5894 0.981658 11.9856 0.710327C11.8294 0.640738 11.6574 0.613855 11.4874 0.632421C11.3173 0.650987 11.1552 0.714338 11.0177 0.816009C10.8801 0.91768 10.7719 1.05403 10.7043 1.21114C10.6366 1.36826 10.6118 1.54051 10.6325 1.71033C10.716 2.21827 10.8559 2.71531 11.0497 3.1922C11.3375 3.97345 11.5859 4.64814 11.3019 5.65439C11.1069 6.34408 11.0153 7.55626 11.6838 9.41283C11.7321 9.5469 11.8094 9.6687 11.9101 9.7696C12.0107 9.87049 12.1324 9.94802 12.2663 9.99668C12.4003 10.0453 12.5433 10.0639 12.6853 10.0512C12.8273 10.0384 12.9647 9.9946 13.0878 9.92283C13.9756 9.3947 15.5087 8.28376 15.8066 6.76408C15.8334 6.64122 15.8871 6.52583 15.9637 6.42615C16.0404 6.32647 16.1382 6.24498 16.25 6.18751V8.02533C15.8763 8.20261 15.5604 8.48223 15.3392 8.83175C15.1179 9.18127 15.0003 9.58636 15 10V13.75C15.0006 14.1635 15.1183 14.5683 15.3395 14.9176C15.5608 15.2668 15.8764 15.5463 16.25 15.7235V17.1875C16.25 17.2704 16.2171 17.3499 16.1585 17.4085C16.0999 17.4671 16.0204 17.5 15.9375 17.5H14.0625V15.625C14.0629 14.8974 13.9179 14.1771 13.6361 13.5063C13.3544 12.8355 12.9414 12.2278 12.4216 11.7188C11.3233 10.6245 9.83815 10.007 8.28781 10H1.5625C1.31386 10 1.0754 10.0988 0.899587 10.2746C0.723772 10.4504 0.625 10.6889 0.625 10.9375V18.4375C0.625 18.6862 0.723772 18.9246 0.899587 19.1004C1.0754 19.2762 1.31386 19.375 1.5625 19.375H15.9375C16.5175 19.3744 17.0735 19.1437 17.4836 18.7336C17.8937 18.3235 18.1243 17.7675 18.125 17.1875V15.7235C18.4986 15.5463 18.8142 15.2668 19.0355 14.9176C19.2567 14.5683 19.3744 14.1635 19.375 13.75V10C19.3744 9.58657 19.2567 9.18175 19.0355 8.83247C18.8142 8.48319 18.4986 8.20377 18.125 8.02658ZM15.9131 5.66064C15.7276 5.76417 15.5668 5.90686 15.4419 6.07879C15.317 6.25072 15.2311 6.44778 15.19 6.65626C14.9328 7.97345 13.4106 9.0047 12.7681 9.38658C12.7243 9.41183 12.6755 9.4271 12.6251 9.43131C12.5747 9.43552 12.524 9.42855 12.4766 9.41091C12.4292 9.39328 12.3863 9.3654 12.3509 9.32927C12.3155 9.29314 12.2885 9.24964 12.2719 9.20189C11.7941 7.87501 11.6631 6.67564 11.9034 5.82501C12.2425 4.62376 11.9347 3.78658 11.6362 2.97689C11.4585 2.54172 11.329 2.08839 11.25 1.62501C11.2413 1.56506 11.2491 1.50385 11.2728 1.44806C11.2964 1.39226 11.3349 1.34402 11.384 1.30857C11.4331 1.27312 11.4911 1.25183 11.5515 1.24702C11.6119 1.24221 11.6724 1.25405 11.7266 1.28126C12.4072 1.58665 13.1412 1.75547 13.8869 1.77814C17.4353 1.86595 17.5 4.27408 17.5 4.37501V7.83751C17.2929 7.80501 17.0821 7.80501 16.875 7.83751V6.18751C16.8736 6.07595 16.8425 5.96677 16.7851 5.87114C16.7276 5.77552 16.6457 5.69688 16.5479 5.64328C16.45 5.58968 16.3397 5.56304 16.2282 5.56609C16.1166 5.56914 16.0079 5.60177 15.9131 5.66064ZM1.25 10.9375C1.25 10.8546 1.28292 10.7751 1.34153 10.7165C1.40013 10.6579 1.47962 10.625 1.5625 10.625H8.25656C9.65101 10.6304 10.9877 11.1825 11.9797 12.1625C12.8678 13.0338 13.3869 14.2132 13.4297 15.4566C12.2687 15.1722 11.3419 14.9144 10.5625 13.875C10.3975 13.6563 10.2091 13.3803 10.0122 13.0938C9.65598 12.5368 9.25474 12.0099 8.8125 11.5185C8.6375 11.3463 8.40177 11.2498 8.15625 11.25H1.25V10.9375ZM1.25 13.4375H2.5V14.0625H1.25V13.4375ZM13.4375 16.5625H11.875C11.7921 16.5625 11.7126 16.5954 11.654 16.654C11.5954 16.7126 11.5625 16.7921 11.5625 16.875C11.5625 16.9579 11.5954 17.0374 11.654 17.096C11.7126 17.1546 11.7921 17.1875 11.875 17.1875H13.4375V18.4375C13.4375 18.5204 13.4046 18.5999 13.346 18.6585C13.2874 18.7171 13.2079 18.75 13.125 18.75H1.5625C1.47962 18.75 1.40013 18.7171 1.34153 18.6585C1.28292 18.5999 1.25 18.5204 1.25 18.4375V17.1875H2.8125C2.89538 17.1875 2.97487 17.1546 3.03347 17.096C3.09208 17.0374 3.125 16.9579 3.125 16.875C3.125 16.7921 3.09208 16.7126 3.03347 16.654C2.97487 16.5954 2.89538 16.5625 2.8125 16.5625H1.25V15.9375H2.8125C2.89538 15.9375 2.97487 15.9046 3.03347 15.846C3.09208 15.7874 3.125 15.7079 3.125 15.625C3.125 15.5421 3.09208 15.4626 3.03347 15.404C2.97487 15.3454 2.89538 15.3125 2.8125 15.3125H1.25V14.6875H2.5C2.66576 14.6875 2.82473 14.6217 2.94194 14.5045C3.05915 14.3872 3.125 14.2283 3.125 14.0625V13.4375C3.125 13.2718 3.05915 13.1128 2.94194 12.9956C2.82473 12.8784 2.66576 12.8125 2.5 12.8125H1.25V11.875H8.15625C8.23875 11.8746 8.31805 11.9069 8.37687 11.9647C8.78829 12.4293 9.16316 12.9251 9.49813 13.4475C9.70031 13.7422 9.89406 14.0241 10.0634 14.25C11.0128 15.5156 12.19 15.7975 13.4384 16.1019L13.4375 16.5625ZM17.5 17.1875C17.4995 17.6018 17.3347 17.9989 17.0418 18.2918C16.7489 18.5847 16.3517 18.7495 15.9375 18.75H14.005C14.042 18.6499 14.0615 18.5442 14.0625 18.4375V18.125H15.9375C16.1861 18.125 16.4246 18.0262 16.6004 17.8504C16.7762 17.6746 16.875 17.4362 16.875 17.1875V15.9125C17.0821 15.945 17.2929 15.945 17.5 15.9125V17.1875ZM18.75 13.75C18.75 14.1644 18.5854 14.5618 18.2924 14.8549C17.9993 15.1479 17.6019 15.3125 17.1875 15.3125C16.7731 15.3125 16.3757 15.1479 16.0826 14.8549C15.7896 14.5618 15.625 14.1644 15.625 13.75V12.1875H18.75V13.75ZM18.75 11.5625H15.625V10.9375H18.75V11.5625ZM18.75 10.3125H15.625V10C15.625 9.58561 15.7896 9.18819 16.0826 8.89516C16.3757 8.60213 16.7731 8.43751 17.1875 8.43751C17.6019 8.43751 17.9993 8.60213 18.2924 8.89516C18.5854 9.18819 18.75 9.58561 18.75 10V10.3125Z" fill="#252525"/>
<path d="M9.90844 3.97094C9.96703 3.91234 9.99994 3.83287 9.99994 3.75001C9.99994 3.66714 9.96703 3.58767 9.90844 3.52907L8.34594 1.96657C8.287 1.90964 8.20807 1.87815 8.12613 1.87886C8.04419 1.87957 7.96581 1.91243 7.90787 1.97037C7.84993 2.02831 7.81707 2.10669 7.81636 2.18863C7.81565 2.27057 7.84714 2.3495 7.90407 2.40844L9.46657 3.97094C9.52517 4.02953 9.60464 4.06244 9.68751 4.06244C9.77037 4.06244 9.84984 4.02953 9.90844 3.97094Z" fill="#252525"/>
<path d="M9.46657 6.65407L7.90407 8.21657C7.84714 8.27551 7.81565 8.35444 7.81636 8.43638C7.81707 8.51832 7.84993 8.5967 7.90787 8.65464C7.96581 8.71258 8.04419 8.74544 8.12613 8.74615C8.20807 8.74687 8.287 8.71537 8.34594 8.65844L9.90844 7.09594C9.96537 7.037 9.99687 6.95807 9.99615 6.87613C9.99544 6.79419 9.96258 6.71581 9.90464 6.65787C9.8467 6.59993 9.76832 6.56707 9.68638 6.56636C9.60444 6.56565 9.52551 6.59714 9.46657 6.65407Z" fill="#252525"/>
<path d="M7.1875 5.3125C7.1875 5.39538 7.22042 5.47487 7.27903 5.53347C7.33763 5.59208 7.41712 5.625 7.5 5.625H9.6875C9.77038 5.625 9.84987 5.59208 9.90847 5.53347C9.96708 5.47487 10 5.39538 10 5.3125C10 5.22962 9.96708 5.15013 9.90847 5.09153C9.84987 5.03292 9.77038 5 9.6875 5H7.5C7.41712 5 7.33763 5.03292 7.27903 5.09153C7.22042 5.15013 7.1875 5.22962 7.1875 5.3125Z" fill="#252525"/>
</g>
<defs>
<clipPath id="clip0_25_191">
<rect width="20" height="20" fill="white"/>
</clipPath>
</defs>
</svg>
