<svg width="20" height="20" viewBox="0 0 20 20" fill="none" xmlns="http://www.w3.org/2000/svg">
<g clip-path="url(#clip0_25_250)">
<path d="M19.3333 16V4.33333C19.3311 3.52287 18.7462 2.83148 17.9473 2.695C17.8159 2.28224 17.4332 2.00144 17 2H15V1.33333C15 0.596954 14.403 0 13.6667 0H6.33333C5.59695 0 5 0.596954 5 1.33333V2H3C2.56683 2.00144 2.18408 2.28224 2.05267 2.695C1.25377 2.83148 0.668871 3.52287 0.666667 4.33333V16C0.298477 16 0 16.2985 0 16.6667V17.6667C0.00146955 18.9547 1.04528 19.9985 2.33333 20H17.6667C18.9547 19.9985 19.9985 18.9547 20 17.6667V16.6667C20 16.2985 19.7015 16 19.3333 16ZM2.66667 5.33333H5V7.33333C5 8.06971 5.59695 8.66667 6.33333 8.66667H7.48333L9.177 11.3333H7C6.81591 11.3333 6.66667 11.4826 6.66667 11.6667C6.66667 11.8508 6.81591 12 7 12H13C13.1841 12 13.3333 11.8508 13.3333 11.6667C13.3333 11.4826 13.1841 11.3333 13 11.3333H10.823L12.5167 8.66667H13.6667C14.403 8.66667 15 8.06971 15 7.33333V5.33333H17.3333V14.3333C17.3333 14.5174 17.1841 14.6667 17 14.6667H3C2.81591 14.6667 2.66667 14.5174 2.66667 14.3333V5.33333ZM17 2.66667C17.1841 2.66667 17.3333 2.81591 17.3333 3V4.66667H15V2.66667H17ZM5.66667 1.33333C5.66667 0.965144 5.96514 0.666667 6.33333 0.666667H13.6667C14.0349 0.666667 14.3333 0.965144 14.3333 1.33333V7.33333C14.3333 7.70152 14.0349 8 13.6667 8H10.6667C10.4826 8 10.3333 8.14924 10.3333 8.33333C10.3333 8.51743 10.4826 8.66667 10.6667 8.66667H11.7267L10.0513 11.3053C10.0401 11.3227 10.0208 11.3331 10.0002 11.3331C9.97951 11.3331 9.96025 11.3227 9.949 11.3053L8.27333 8.66667H9.33333C9.51743 8.66667 9.66667 8.51743 9.66667 8.33333C9.66667 8.14924 9.51743 8 9.33333 8H6.33333C5.96514 8 5.66667 7.70152 5.66667 7.33333V1.33333ZM3 2.66667H5V4.66667H2.66667V3C2.66667 2.81591 2.81591 2.66667 3 2.66667ZM1.33333 4.33333C1.33508 3.91107 1.60188 3.53542 2 3.39467V14.3333C2 14.8856 2.44772 15.3333 3 15.3333H17C17.5523 15.3333 18 14.8856 18 14.3333V3.39467C18.3981 3.53542 18.6649 3.91107 18.6667 4.33333V16H1.33333V4.33333ZM7 16.6667H13V17C13 17.3682 12.7015 17.6667 12.3333 17.6667H7.66667C7.29848 17.6667 7 17.3682 7 17V16.6667ZM19.3333 17.6667C19.3322 18.5867 18.5867 19.3322 17.6667 19.3333H2.33333C1.41332 19.3322 0.667769 18.5867 0.666667 17.6667V16.6667H6.33333V17C6.33333 17.7364 6.93029 18.3333 7.66667 18.3333H12.3333C13.0697 18.3333 13.6667 17.7364 13.6667 17V16.6667H19.3333V17.6667Z" fill="#252525"/>
<path d="M5 17.3333H4.33333C4.14924 17.3333 4 17.4826 4 17.6666C4 17.8507 4.14924 18 4.33333 18H5C5.18409 18 5.33333 17.8507 5.33333 17.6666C5.33333 17.4826 5.18409 17.3333 5 17.3333Z" fill="#252525"/>
<path d="M1.66665 18C1.85074 18 1.99998 17.8507 1.99998 17.6666C1.99998 17.4826 1.85074 17.3333 1.66665 17.3333C1.48255 17.3333 1.33331 17.4826 1.33331 17.6666C1.33331 17.8507 1.48255 18 1.66665 18Z" fill="#252525"/>
<path d="M3.00002 18C3.18412 18 3.33335 17.8507 3.33335 17.6666C3.33335 17.4826 3.18412 17.3333 3.00002 17.3333C2.81593 17.3333 2.66669 17.4826 2.66669 17.6666C2.66669 17.8507 2.81593 18 3.00002 18Z" fill="#252525"/>
<path d="M4.00002 3.99998C4.18412 3.99998 4.33335 3.85074 4.33335 3.66665C4.33335 3.48255 4.18412 3.33331 4.00002 3.33331C3.81593 3.33331 3.66669 3.48255 3.66669 3.66665C3.66669 3.85074 3.81593 3.99998 4.00002 3.99998Z" fill="#252525"/>
<path d="M7.99998 5.66669H8.66665V6.33335C8.66665 6.70154 8.96512 7.00002 9.33331 7.00002H10.6666C11.0348 7.00002 11.3333 6.70154 11.3333 6.33335V5.66669H12C12.3682 5.66669 12.6666 5.36821 12.6666 5.00002V3.66669C12.6666 3.2985 12.3682 3.00002 12 3.00002H11.3333V2.33335C11.3333 1.96516 11.0348 1.66669 10.6666 1.66669H9.33331C8.96512 1.66669 8.66665 1.96516 8.66665 2.33335V3.00002H7.99998C7.63179 3.00002 7.33331 3.2985 7.33331 3.66669V5.00002C7.33331 5.36821 7.63179 5.66669 7.99998 5.66669ZM7.99998 3.66669H8.66665C9.03484 3.66669 9.33331 3.36821 9.33331 3.00002V2.33335H10.6666V3.00002C10.6666 3.36821 10.9651 3.66669 11.3333 3.66669H12V5.00002H11.3333C10.9651 5.00002 10.6666 5.2985 10.6666 5.66669V6.33335H9.33331V5.66669C9.33331 5.2985 9.03484 5.00002 8.66665 5.00002H7.99998V3.66669Z" fill="#252525"/>
<path d="M7.00002 13.3334H10.3334C10.5174 13.3334 10.6667 13.1841 10.6667 13C10.6667 12.8159 10.5174 12.6667 10.3334 12.6667H7.00002C6.81593 12.6667 6.66669 12.8159 6.66669 13C6.66669 13.1841 6.81593 13.3334 7.00002 13.3334Z" fill="#252525"/>
<path d="M11.6666 13.3334C11.8507 13.3334 12 13.1841 12 13C12 12.8159 11.8507 12.6667 11.6666 12.6667C11.4826 12.6667 11.3333 12.8159 11.3333 13C11.3333 13.1841 11.4826 13.3334 11.6666 13.3334Z" fill="#252525"/>
</g>
<defs>
<clipPath id="clip0_25_250">
<rect width="20" height="20" fill="white"/>
</clipPath>
</defs>
</svg>
