<svg width="20" height="20" viewBox="0 0 20 20" fill="none" xmlns="http://www.w3.org/2000/svg">
<g clip-path="url(#clip0_25_199)">
<path d="M19.9758 11.149C19.828 10.1251 19.0236 9.32078 17.9997 9.17299V8.567C17.9997 6.89502 16.7288 5.53371 15.1664 5.53371C13.6491 5.53371 12.3788 6.85369 12.3332 8.47633H12.3525L12.3332 8.47966V15.0486C12.3332 17.1485 10.7632 18.8538 8.83321 18.8538C6.90323 18.8538 5.33326 17.1462 5.33326 15.0486V14.4796C5.81658 14.4796 6.33324 14.1293 6.33324 13.1463V12.3079C8.47254 11.761 9.99986 9.92398 9.99986 7.84134V7.14635H9.3332L9.3192 2.80808C9.31436 2.00505 8.73812 1.31939 7.94788 1.17644C7.77743 0.654238 7.21589 0.369075 6.69365 0.539573C6.17145 0.710028 5.88629 1.27156 6.05679 1.7938C6.22724 2.316 6.78878 2.60117 7.31102 2.43067C7.59064 2.33938 7.81551 2.12901 7.92522 1.8561C8.35225 1.97759 8.64808 2.36609 8.65154 2.81008L8.66654 7.14635H7.99988V7.85101C7.9733 9.01045 7.19598 10.018 6.08124 10.338C5.4848 10.5272 4.84439 10.5272 4.24794 10.338C3.1345 10.0169 2.35892 9.00953 2.3333 7.85101V7.14635H1.33331V2.81308C1.33523 2.36255 1.63823 1.96889 2.0733 1.85176C2.27618 2.36821 2.85929 2.62238 3.37574 2.4195C3.89219 2.21663 4.14636 1.63347 3.94348 1.11706C3.74061 0.600655 3.15745 0.34645 2.64105 0.549322C2.36122 0.659279 2.1453 0.888734 2.05264 1.17477C1.25377 1.31127 0.668865 2.00263 0.666657 2.81308V7.14635H0V7.83967C0 9.92464 1.52831 11.7623 3.66661 12.3079V13.1463C3.66661 14.1293 4.18327 14.4796 4.6666 14.4796V15.0486C4.6666 17.5152 6.53557 19.5205 8.83321 19.5205C11.1308 19.5205 12.9998 17.5129 12.9998 15.0486V8.49566C13.0331 7.23068 14.0058 6.20136 15.1664 6.20136C16.3611 6.20136 17.3331 7.26268 17.3331 8.568V9.17299C16.0576 9.35707 15.1729 10.5403 15.357 11.8157C15.5411 13.0911 16.7243 13.9758 17.9997 13.7918C19.2752 13.6077 20.1599 12.4244 19.9758 11.149ZM6.9999 1.8131C6.81582 1.8131 6.66657 1.66385 6.66657 1.47977C6.66657 1.29569 6.81582 1.14644 6.9999 1.14644C7.18398 1.14644 7.33323 1.29569 7.33323 1.47977C7.33323 1.66385 7.18398 1.8131 6.9999 1.8131ZM2.99996 1.14644C3.18404 1.14644 3.33328 1.29569 3.33328 1.47977C3.33328 1.66385 3.18404 1.8131 2.99996 1.8131C2.81588 1.8131 2.66663 1.66385 2.66663 1.47977C2.66663 1.29569 2.81588 1.14644 2.99996 1.14644ZM0.666657 7.83967V7.81301H1.66664V7.85101C1.69164 9.29978 2.6555 10.5641 4.04594 10.972C4.77456 11.2027 5.55663 11.2027 6.28524 10.972C7.67635 10.5647 8.64108 9.30028 8.66654 7.85101V7.81301H9.3332V7.83967C9.3332 9.69398 7.90388 11.3256 5.93325 11.7203C5.4705 11.8129 4.99651 11.8362 4.52693 11.7893C4.37235 11.7743 4.21869 11.751 4.06661 11.7196C2.09597 11.3256 0.666657 9.69398 0.666657 7.83967ZM4.6666 13.8129C4.3666 13.8129 4.33327 13.3463 4.33327 13.1463V12.4389C4.35994 12.4423 4.38727 12.4436 4.41427 12.4463C4.4476 12.4499 4.48094 12.4526 4.51427 12.4556C4.67193 12.4696 4.83093 12.4789 4.99126 12.4793H5.00793C5.16792 12.4793 5.32659 12.4696 5.48325 12.4556C5.51659 12.4526 5.55192 12.4499 5.58625 12.4463C5.61259 12.4433 5.63992 12.4423 5.66625 12.4389V13.1463C5.66625 13.3463 5.63292 13.8129 5.33292 13.8129H4.6666ZM17.6664 13.1463C16.746 13.1463 15.9998 12.4001 15.9998 11.4796C15.9998 10.5592 16.746 9.81298 17.6664 9.81298C18.5869 9.81298 19.3331 10.5592 19.3331 11.4796C19.332 12.3997 18.5864 13.1452 17.6664 13.1463Z" fill="#252525"/>
<path d="M17.6664 10.4796C17.1141 10.4796 16.6664 10.9273 16.6664 11.4796C16.6664 12.0319 17.1141 12.4796 17.6664 12.4796C18.2187 12.4796 18.6664 12.0319 18.6664 11.4796C18.6664 10.9273 18.2187 10.4796 17.6664 10.4796ZM17.6664 11.8129C17.4823 11.8129 17.3331 11.6637 17.3331 11.4796C17.3331 11.2955 17.4823 11.1463 17.6664 11.1463C17.8505 11.1463 17.9998 11.2955 17.9998 11.4796C17.9998 11.6637 17.8505 11.8129 17.6664 11.8129Z" fill="#252525"/>
</g>
<defs>
<clipPath id="clip0_25_199">
<rect width="20" height="20" fill="white"/>
</clipPath>
</defs>
</svg>
