<svg width="20" height="20" viewBox="0 0 20 20" fill="none" xmlns="http://www.w3.org/2000/svg">
<g clip-path="url(#clip0_25_296)">
<path d="M6.90603 19.9993C6.9367 19.9993 6.9667 20 6.9967 20C8.85036 20 10.594 19.2847 11.915 17.98C13.2594 16.6523 14 14.88 14 12.9897C14 12.3717 13.9334 11.775 13.7974 11.1807C14.1834 11.2767 14.5847 11.333 15 11.333C17.757 11.333 20 9.09 20 6.333C20 3.576 17.757 1.333 15 1.333C12.7124 1.333 10.783 2.87933 10.191 4.98C9.09103 3.55933 8.01336 2.075 7.44936 0.337333C7.38903 0.136667 7.2067 0.000666667 6.9957 0H6.99403C6.7847 0 6.60336 0.133333 6.54336 0.327667C5.9177 2.26 4.6607 3.87633 3.4447 5.43933C2.0547 7.22633 0.617697 9.074 0.150697 11.3803C-0.287303 13.5353 0.24103 15.737 1.60003 17.421C2.90136 19.034 4.83536 19.9737 6.90603 19.9993ZM15 2C17.3894 2 19.3334 3.944 19.3334 6.33333C19.3334 8.72267 17.3894 10.6667 15 10.6667C12.6107 10.6667 10.6667 8.72267 10.6667 6.33333C10.6667 3.944 12.6107 2 15 2ZM0.80403 11.5127C1.24003 9.35967 2.56636 7.65433 3.97103 5.84867C5.11503 4.37833 6.29436 2.862 6.9947 1.04767C7.6957 2.86267 8.87636 4.38067 10.0244 5.852C10.009 6.01067 10 6.171 10 6.33333C10 8.39533 11.255 10.1693 13.041 10.9327C13.2347 11.61 13.3334 12.2847 13.3334 12.9897C13.3334 14.7003 12.6634 16.304 11.4467 17.5057C10.232 18.7053 8.6177 19.356 6.91436 19.3323C5.04303 19.3093 3.29503 18.4597 2.1187 17.002C0.88503 15.473 0.405364 13.4727 0.80403 11.5127Z" fill="black"/>
<path d="M12.879 8.92569C13.0093 8.79569 13.0093 8.58469 12.879 8.45436C11.7097 7.28502 11.7097 5.38202 12.879 4.21236C13.8237 3.26769 15.247 3.08736 16.3757 3.66869L15.243 5.36669C15.1647 5.34702 15.0843 5.33336 15 5.33336C14.4487 5.33336 14 5.78202 14 6.33336C14 6.88469 14.4487 7.33336 15 7.33336C15.5513 7.33336 16 6.88469 16 6.33336C16 6.10869 15.923 5.90369 15.7977 5.73669L16.9297 4.03969C16.995 4.09469 17.0597 4.15102 17.121 4.21269C18.2903 5.38202 18.2903 7.28502 17.121 8.45469C16.9907 8.58502 16.9907 8.79602 17.121 8.92602C17.186 8.99102 17.2713 9.02369 17.3567 9.02369C17.442 9.02369 17.5273 8.99102 17.5923 8.92602C19.0217 7.49669 19.0217 5.17069 17.5923 3.74136C17.497 3.64602 17.3973 3.55836 17.2947 3.47569C17.3653 3.32869 17.3247 3.14936 17.1847 3.05636C17.0447 2.96236 16.863 2.99402 16.7543 3.11702C15.3633 2.35936 13.583 2.56602 12.4073 3.74169C10.978 5.17102 10.978 7.49702 12.4073 8.92636C12.5377 9.05669 12.7483 9.05669 12.8787 8.92636L12.879 8.92569ZM15 6.66669C14.816 6.66669 14.6667 6.51702 14.6667 6.33336C14.6667 6.14969 14.816 6.00002 15 6.00002C15.184 6.00002 15.3333 6.14969 15.3333 6.33336C15.3333 6.51702 15.184 6.66669 15 6.66669Z" fill="black"/>
<path d="M3.00002 13H4.66669C4.80569 13 4.93002 12.9137 4.97902 12.784L5.60302 11.1197L6.67702 15.4143C6.71302 15.5597 6.84169 15.6627 6.99135 15.667H7.00002C7.14602 15.667 7.27535 15.572 7.31869 15.4317L8.37435 12.0003L8.69035 12.7907C8.74102 12.9173 8.86369 13.0003 9.00002 13.0003H11C11.1844 13.0003 11.3334 12.8513 11.3334 12.667C11.3334 12.4827 11.1844 12.3337 11 12.3337H9.22569L8.64302 10.8767C8.59069 10.7453 8.46002 10.6613 8.31969 10.6673C8.17835 10.6733 8.05635 10.7673 8.01469 10.9023L7.03335 14.092L5.99002 9.91933C5.95502 9.77799 5.83135 9.67566 5.68569 9.66733C5.53835 9.66033 5.40602 9.74666 5.35469 9.88299L4.43569 12.3333H3.00002C2.81569 12.3333 2.66669 12.4823 2.66669 12.6667C2.66669 12.851 2.81569 13 3.00002 13Z" fill="black"/>
</g>
<defs>
<clipPath id="clip0_25_296">
<rect width="20" height="20" fill="white"/>
</clipPath>
</defs>
</svg>
