<svg width="32" height="33" viewBox="0 0 32 33" fill="none" xmlns="http://www.w3.org/2000/svg">
<mask id="mask0_7_81" style="mask-type:luminance" maskUnits="userSpaceOnUse" x="0" y="0" width="32" height="33">
<path d="M0 0.500002H32V32.5H0V0.500002Z" fill="white"/>
</mask>
<g mask="url(#mask0_7_81)">
<path d="M23.5511 25.3801C23.5758 24.6137 22.956 23.9773 22.1933 23.9773H22.1906V23.9768C22.2274 23.9768 22.265 23.9767 22.3039 23.9767C23.0443 23.9762 23.6438 23.3753 23.6435 22.6351C23.6428 21.8946 23.0421 21.2989 22.3018 21.2995H16.7245C16.569 21.2995 16.4589 21.1476 16.5073 20.9999L16.9962 19.5077C17.4122 18.2378 17.3382 17.373 17.3382 15.8857C17.3382 15.0108 16.629 14.3016 15.7541 14.3016C14.9593 14.3016 14.2876 14.8905 14.1835 15.6783C14.0684 16.5501 13.9909 18.1002 12.5497 19.488L11.5325 20.4673C10.9659 21.013 10.2099 21.3177 9.42328 21.3177H8.08722V30.1108C8.45059 30.1107 9.18097 30.1106 9.18147 30.1106C11.1234 30.1093 10.9459 32.0325 13.361 32.0303H21.5809C22.3203 32.0303 22.9198 31.4309 22.9198 30.6914V30.6913C22.9198 29.9519 22.3203 29.3525 21.5809 29.3525H21.8167C22.5444 29.3525 23.1657 28.7866 23.1899 28.0594C23.2152 27.299 22.6064 26.6746 21.8518 26.6746H22.1774C22.9057 26.6746 23.5275 26.1081 23.5511 25.3801Z" fill="#FFCDBF"/>
<path d="M21.5809 30.4678H13.361C10.9459 30.47 11.1234 28.5468 9.18147 28.548C9.18097 28.548 8.45059 28.5481 8.08722 28.5483V30.1108C8.45059 30.1106 9.18097 30.1105 9.18147 30.1105C11.1234 30.1093 10.9459 32.0325 13.361 32.0303H21.5809C22.3203 32.0303 22.9198 31.4308 22.9198 30.6914V30.6913C22.9198 30.3994 22.8253 30.1301 22.6667 29.9101C22.4236 30.2474 22.0284 30.4678 21.5809 30.4678Z" fill="#FFBEAB"/>
<path d="M7.70699 20.5276H2.63599C2.25342 20.5276 1.9433 20.8377 1.9433 21.2203V30.3804C1.9433 30.7629 2.25342 31.0731 2.63599 31.0731H7.70699C8.08955 31.0731 8.39967 30.7629 8.39967 30.3804V21.2203C8.39967 20.8377 8.08955 20.5276 7.70699 20.5276Z" fill="#54A0FF"/>
<path d="M3.8183 30.3803V21.2202C3.8183 20.8377 4.12842 20.5275 4.51099 20.5275H2.63599C2.25342 20.5275 1.9433 20.8377 1.9433 21.2202V30.3803C1.9433 30.7629 2.25342 31.073 2.63599 31.073H4.51099C4.12842 31.073 3.8183 30.7629 3.8183 30.3803Z" fill="#338DEF"/>
<path d="M9.24804 8.22268C9.43722 8.04205 9.33279 7.72736 9.07141 7.69018L7.05235 7.40274C6.94854 7.38799 6.85879 7.32411 6.81235 7.23199L5.90941 5.4398C5.79247 5.20774 5.45472 5.20774 5.33785 5.4398L4.43485 7.23199C4.38847 7.32411 4.29872 7.38799 4.19491 7.40274L2.17579 7.69018C1.91441 7.72736 1.81004 8.04205 1.99916 8.22268L3.46022 9.61768C3.53529 9.68943 3.5696 9.79274 3.55185 9.89405L3.20697 11.8639C3.16229 12.1189 3.43554 12.3134 3.66941 12.1929L5.47529 11.2629C5.56816 11.2151 5.67904 11.2151 5.77191 11.2629L7.57785 12.1929C7.81166 12.3134 8.08491 12.1189 8.04029 11.8639L7.69535 9.89405C7.67766 9.79274 7.71191 9.68943 7.78704 9.61768L9.24804 8.22268Z" fill="#FECA57"/>
<path d="M5.7568 9.53349C5.77455 9.43224 5.74024 9.32893 5.66511 9.25718L4.20411 7.86211C4.0593 7.7238 4.08699 7.50736 4.22505 7.39661C4.21511 7.39899 4.20511 7.4013 4.19486 7.40274L2.1758 7.69018C1.91436 7.72736 1.81005 8.04205 1.99918 8.22268L3.46018 9.61768C3.5353 9.68943 3.56961 9.79274 3.55186 9.89405L3.20699 11.8639C3.1623 12.1189 3.43561 12.3134 3.66943 12.1929L5.45193 11.275L5.7568 9.53349Z" fill="#F4B537"/>
<path d="M4.38076 7.32961L6.39982 7.04224C6.50038 7.02792 6.58738 6.9673 6.63495 6.8798L5.90938 5.43974C5.79251 5.20774 5.4547 5.20774 5.33782 5.43974L4.43482 7.23199C4.41407 7.2733 4.3842 7.30849 4.34857 7.33655C4.35913 7.33399 4.36963 7.33117 4.38076 7.32961Z" fill="#F4B537"/>
<path d="M30.044 8.22268C30.2331 8.04205 30.1288 7.72736 29.8674 7.69018L27.8483 7.40274C27.7445 7.38799 27.6547 7.32411 27.6083 7.23199L26.7054 5.4398C26.5885 5.20774 26.2507 5.20774 26.1338 5.4398L25.2308 7.23199C25.1844 7.32411 25.0947 7.38799 24.9908 7.40274L22.9718 7.69018C22.7104 7.72736 22.606 8.04205 22.7951 8.22268L24.2561 9.61768C24.3313 9.68943 24.3656 9.79274 24.3478 9.89405L24.0029 11.8639C23.9583 12.1189 24.2315 12.3134 24.4653 12.1929L26.2713 11.2629C26.3641 11.2151 26.475 11.2151 26.5679 11.2629L28.3738 12.1929C28.6076 12.3134 28.8809 12.1189 28.8362 11.8639L28.4913 9.89405C28.4736 9.79274 28.5079 9.68943 28.583 9.61768L30.044 8.22268Z" fill="#FECA57"/>
<path d="M26.5527 9.53349C26.5705 9.43224 26.5362 9.32893 26.4611 9.25718L25.0001 7.86211C24.8552 7.7238 24.8829 7.50736 25.021 7.39661C25.0111 7.39899 25.0011 7.4013 24.9909 7.40274L22.9718 7.69018C22.7104 7.72736 22.606 8.04205 22.7951 8.22268L24.2561 9.61768C24.3313 9.68943 24.3656 9.79274 24.3478 9.89405L24.0029 11.8639C23.9582 12.1189 24.2316 12.3134 24.4654 12.1929L26.2479 11.275L26.5527 9.53349Z" fill="#F4B537"/>
<path d="M25.1767 7.32961L27.1957 7.04224C27.2963 7.02792 27.3833 6.9673 27.4308 6.8798L26.7053 5.43974C26.5884 5.20774 26.2507 5.20774 26.1337 5.43974L25.2308 7.23199C25.21 7.2733 25.1801 7.30849 25.1445 7.33655C25.1551 7.33399 25.1655 7.33117 25.1767 7.32961Z" fill="#F4B537"/>
<path d="M21.882 5.75077C22.1879 5.45877 22.019 4.94996 21.5964 4.88977L18.3317 4.42508C18.1639 4.40121 18.0187 4.29789 17.9437 4.14896L16.4837 1.25108C16.2947 0.875957 15.7485 0.875957 15.5595 1.25108L14.0995 4.14896C14.0244 4.29789 13.8794 4.40121 13.7115 4.42508L10.4468 4.88977C10.0241 4.94996 9.85535 5.45877 10.1612 5.75077L12.5235 8.00646C12.645 8.12239 12.7004 8.28952 12.6717 8.45321L12.114 11.6383C12.0419 12.0506 12.4837 12.3651 12.8618 12.1704L15.7818 10.6666C15.9319 10.5893 16.1112 10.5893 16.2614 10.6666L19.1814 12.1704C19.5594 12.3651 20.0013 12.0506 19.9291 11.6383L19.3714 8.45321C19.3427 8.28952 19.3982 8.12239 19.5197 8.00646L21.882 5.75077Z" fill="#FECA57"/>
<path d="M15.9164 4.06455C16.0843 4.04068 16.2293 3.93737 16.3044 3.78843L17.0332 2.34187L16.4837 1.25105C16.2947 0.875928 15.7485 0.875928 15.5595 1.25105L14.0995 4.14893C14.0575 4.23224 13.9931 4.30049 13.9156 4.34937L15.9164 4.06455Z" fill="#F4B537"/>
<path d="M14.319 11.2778L14.8766 8.09276C14.9054 7.92895 14.8499 7.76189 14.7284 7.64595L12.3661 5.39026C12.1174 5.15276 12.1826 4.77201 12.4429 4.60564L10.4468 4.88976C10.0241 4.94995 9.85532 5.45876 10.1612 5.75076L12.5235 8.00645C12.6449 8.12245 12.7004 8.28951 12.6717 8.45326L12.1141 11.6383C12.0418 12.0506 12.4837 12.3651 12.8618 12.1704L14.3146 11.4222C14.3094 11.3759 14.3103 11.3276 14.319 11.2778Z" fill="#F4B537"/>
<path d="M23.5472 25.3801C23.572 24.6137 22.9521 23.9773 22.1894 23.9773H22.1867V23.9768C22.2235 23.9768 22.2611 23.9767 22.3 23.9767C23.0404 23.9762 23.64 23.3753 23.6396 22.6351C23.6389 21.8946 23.0382 21.2989 22.298 21.2995H16.7206C16.5651 21.2995 16.4551 21.1476 16.5034 20.9999L16.9922 19.5077C17.4083 18.2378 17.3343 17.373 17.3343 15.8857C17.3343 15.0108 16.6251 14.3016 15.7502 14.3016C14.9554 14.3016 14.2837 14.8905 14.1797 15.6783C14.0645 16.5501 13.987 18.1002 12.5458 19.488L11.5287 20.4673C10.962 21.013 10.206 21.3177 9.41944 21.3177H8.39581V30.1108C8.75919 30.1107 9.17706 30.1106 9.17763 30.1106C11.1196 30.1093 10.9421 32.0325 13.3571 32.0303H21.577C22.3164 32.0303 22.9159 31.4309 22.9159 30.6914V30.6913C22.9159 29.9519 22.3164 29.3525 21.577 29.3525H21.8128C22.5405 29.3525 23.1617 28.7866 23.186 28.0594C23.2113 27.299 22.6025 26.6746 21.8479 26.6746H22.1735C22.9018 26.6746 23.5237 26.1081 23.5472 25.3801Z" stroke="#252525" stroke-miterlimit="10" stroke-linecap="round" stroke-linejoin="round"/>
<path d="M21.6995 29.353H20.0571" stroke="#252525" stroke-miterlimit="10" stroke-linecap="round" stroke-linejoin="round"/>
<path d="M21.7346 26.6752H20.0571" stroke="#252525" stroke-miterlimit="10" stroke-linecap="round" stroke-linejoin="round"/>
<path d="M22.1868 23.9773H20.0572" stroke="#252525" stroke-miterlimit="10" stroke-linecap="round" stroke-linejoin="round"/>
<path d="M29.966 8.22268C30.1513 8.04205 30.0491 7.72736 29.7929 7.69018L27.8151 7.40274C27.7134 7.38799 27.6256 7.32411 27.5801 7.23199L26.6956 5.4398C26.5811 5.20774 26.2502 5.20774 26.1357 5.4398L25.2512 7.23199C25.2057 7.32411 25.1178 7.38799 25.0161 7.40274L23.0383 7.69018C22.7823 7.72736 22.68 8.04205 22.8653 8.22268L24.2965 9.61768C24.37 9.68943 24.4036 9.79274 24.3863 9.89405L24.0484 11.8639C24.0046 12.1189 24.2723 12.3134 24.5013 12.1929L26.2704 11.2629C26.3613 11.2151 26.47 11.2151 26.561 11.2629L28.3299 12.1929C28.5589 12.3134 28.8267 12.1189 28.7829 11.8639L28.4451 9.89405C28.4277 9.79274 28.4613 9.68943 28.5349 9.61768L29.966 8.22268Z" stroke="#252525" stroke-miterlimit="10" stroke-linecap="round" stroke-linejoin="round"/>
<path d="M9.17005 8.22268C9.35537 8.04205 9.25312 7.72736 8.99705 7.69018L7.01924 7.40274C6.91755 7.38799 6.82961 7.32411 6.78418 7.23199L5.89968 5.4398C5.78518 5.20774 5.45424 5.20774 5.33974 5.4398L4.45524 7.23199C4.40974 7.32411 4.32187 7.38799 4.22018 7.40274L2.24237 7.69018C1.9863 7.72736 1.88405 8.04205 2.06937 8.22268L3.50055 9.61768C3.57412 9.68943 3.60768 9.79274 3.5903 9.89405L3.25243 11.8639C3.20874 12.1189 3.47643 12.3134 3.70543 12.1929L5.47443 11.2629C5.56537 11.2151 5.67399 11.2151 5.76499 11.2629L7.53399 12.1929C7.76299 12.3134 8.03074 12.1189 7.98699 11.8639L7.64912 9.89405C7.63174 9.79274 7.6653 9.68943 7.73893 9.61768L9.17005 8.22268Z" stroke="#252525" stroke-miterlimit="10" stroke-linecap="round" stroke-linejoin="round"/>
<path d="M6.26139 31.0731H7.70314C8.0857 31.0731 8.39583 30.763 8.39583 30.3804V21.2204C8.39583 20.8378 8.0857 20.5276 7.70314 20.5276H2.63214C2.24958 20.5276 1.93945 20.8378 1.93945 21.2204V30.3804C1.93945 30.763 2.24958 31.0731 2.63214 31.0731H4.07389" stroke="#252525" stroke-miterlimit="10" stroke-linecap="round" stroke-linejoin="round"/>
<path d="M20.0987 7.36845L21.7583 5.75076C22.0579 5.45876 21.8925 4.94995 21.4785 4.88976L18.2806 4.42507C18.1162 4.4012 17.974 4.29795 17.9005 4.14895L16.4703 1.25114C16.2852 0.87595 15.7502 0.87595 15.565 1.25114L14.1348 4.14895C14.0613 4.29795 13.9192 4.4012 13.7548 4.42507L10.5568 4.88976C10.1428 4.94995 9.97747 5.45876 10.2771 5.75076L12.5911 8.00645C12.7101 8.12239 12.7644 8.28945 12.7363 8.4532L12.19 11.6383C12.1193 12.0506 12.5521 12.3651 12.9225 12.1704L15.7828 10.6666C15.9298 10.5893 16.1055 10.5893 16.2525 10.6666L19.1129 12.1704C19.4832 12.3651 19.916 12.0506 19.8453 11.6383L19.4882 9.55595" stroke="#252525" stroke-miterlimit="10" stroke-linecap="round" stroke-linejoin="round"/>
</g>
</svg>
