<svg width="26" height="27" viewBox="0 0 26 27" fill="none" xmlns="http://www.w3.org/2000/svg">
<g clip-path="url(#clip0_34_649)">
<path d="M22.191 4.30623C17.1135 -0.769817 8.88227 -0.768598 3.80623 4.30902C-1.26982 9.38664 -1.2686 17.6178 3.80902 22.6938C8.88664 27.7699 17.1178 27.7686 22.1938 22.691C24.6316 20.2525 26.0008 16.9453 26 13.4972C25.9993 10.0497 24.6292 6.74362 22.191 4.30623ZM19.6881 18.6089C19.6875 18.6094 19.6869 18.61 19.6863 18.6106V18.6063L19.0277 19.2606C18.1758 20.1232 16.9352 20.4781 15.756 20.1966C14.5679 19.8786 13.4386 19.3724 12.4107 18.6973C11.4557 18.0869 10.5706 17.3735 9.77165 16.5696C9.03649 15.8398 8.37603 15.0385 7.79997 14.1776C7.16988 13.2512 6.67115 12.2421 6.31797 11.1789C5.91309 9.92989 6.2486 8.55936 7.18465 7.63859L7.95597 6.86728C8.17042 6.65186 8.51888 6.6511 8.73424 6.86555C8.7348 6.86611 8.73541 6.86667 8.73597 6.86728L11.1713 9.30259C11.3867 9.51704 11.3875 9.8655 11.173 10.0809C11.1725 10.0814 11.1719 10.082 11.1713 10.0826L9.74129 11.5126C9.33097 11.9184 9.27938 12.5634 9.61997 13.0293C10.1372 13.7391 10.7095 14.407 11.3317 15.027C12.0253 15.7236 12.7793 16.3573 13.585 16.9206C14.0505 17.2453 14.6816 17.1906 15.0843 16.7906L16.4666 15.3866C16.6811 15.1712 17.0295 15.1705 17.2449 15.3849C17.2454 15.3855 17.246 15.386 17.2466 15.3866L19.6863 17.8306C19.9018 18.045 19.9025 18.3935 19.6881 18.6089Z" fill="#DA251C"/>
</g>
<defs>
<clipPath id="clip0_34_649">
<rect width="26" height="26" fill="white" transform="translate(0 0.5)"/>
</clipPath>
</defs>
</svg>
