<svg width="24" height="24" viewBox="0 0 24 24" fill="none" xmlns="http://www.w3.org/2000/svg">
<g clip-path="url(#clip0_10_826)">
<path d="M12.0001 23.9998C18.6274 23.9998 24 18.6273 24 11.9999C24 5.37254 18.6274 0 12.0001 0C5.37272 0 0.000183105 5.37254 0.000183105 11.9999C0.000183105 18.6273 5.37272 23.9998 12.0001 23.9998Z" fill="#55ACEE"/>
<path d="M19.3504 8.62387C18.8362 8.8519 18.283 9.00613 17.7029 9.07501C18.2952 8.72013 18.7498 8.15862 18.9643 7.48844C18.4101 7.81722 17.796 8.05573 17.1429 8.18429C16.6197 7.62705 15.8742 7.27881 15.0487 7.27881C13.4649 7.27881 12.1804 8.56334 12.1804 10.1471C12.1804 10.3719 12.2059 10.5908 12.2551 10.8008C9.87126 10.6813 7.75762 9.5394 6.34283 7.80353C6.09597 8.22707 5.95437 8.72013 5.95437 9.24571C5.95437 10.2406 6.46112 11.1189 7.23034 11.6331C6.76038 11.6184 6.3178 11.4894 5.93126 11.274C5.93105 11.2862 5.93105 11.2984 5.93105 11.3104C5.93105 12.7001 6.92017 13.8593 8.23207 14.1226C7.99164 14.1885 7.73773 14.2234 7.47655 14.2234C7.2913 14.2234 7.11183 14.2056 6.93685 14.1723C7.30178 15.3115 8.36085 16.1409 9.61628 16.1642C8.63444 16.9336 7.39783 17.392 6.05362 17.392C5.8226 17.392 5.59371 17.3785 5.36975 17.3518C6.63845 18.1659 8.14651 18.6406 9.76623 18.6406C15.0421 18.6406 17.9273 14.27 17.9273 10.4793C17.9273 10.355 17.9245 10.2312 17.919 10.1084C18.4798 9.70411 18.9661 9.19907 19.3504 8.62387Z" fill="#F1F2F2"/>
</g>
<defs>
<clipPath id="clip0_10_826">
<rect width="24" height="24" fill="white"/>
</clipPath>
</defs>
</svg>
