<svg width="24" height="24" viewBox="0 0 24 24" fill="none" xmlns="http://www.w3.org/2000/svg">
<g clip-path="url(#clip0_10_833)">
<path d="M12 24C18.6274 24 24 18.6274 24 12C24 5.37257 18.6274 0 12 0C5.37257 0 0 5.37257 0 12C0 18.6274 5.37257 24 12 24Z" fill="#E6EFF4"/>
<path d="M18.0739 5.02771C17.8348 4.78856 17.5044 4.64062 17.1396 4.64062H6.86025C6.13056 4.64062 5.539 5.23213 5.539 5.96187V16.2412C5.539 16.6061 5.68694 16.9364 5.92609 17.1755L12.7278 23.9772C19.0161 23.6009 23.9997 18.3828 23.9997 12C23.9997 11.621 23.9813 11.2462 23.9469 10.8761L18.0739 5.02771Z" fill="#B6D1DD"/>
<path d="M17.1395 4.64062H6.86019C6.13049 4.64062 5.53894 5.23213 5.53894 5.96187V16.2411C5.53894 16.9708 6.13045 17.5624 6.86019 17.5624H8.9213V19.3593L11.4233 17.5624H17.1395C17.8691 17.5624 18.4607 16.9709 18.4607 16.2411V5.96183C18.4607 5.23213 17.8692 4.64062 17.1395 4.64062Z" fill="#41A0D7"/>
<path d="M18.4607 15.9814V13.9109C18.1921 13.6367 17.8179 13.4664 17.4037 13.4664H14.3949L18.4607 7.92701V6.15173C18.2514 5.9648 17.9777 5.85596 17.6873 5.85596H11.5374C10.7201 5.85596 10.0575 6.51853 10.0575 7.33578C10.0575 8.15303 10.7201 8.8156 11.5374 8.8156H14.1233L9.93735 14.582C9.68076 14.9354 9.64415 15.4029 9.84247 15.792C10.0408 16.181 10.4406 16.426 10.8773 16.426H17.4037C17.8179 16.4259 18.1921 16.2556 18.4607 15.9814Z" fill="white"/>
</g>
<defs>
<clipPath id="clip0_10_833">
<rect width="24" height="24" fill="white"/>
</clipPath>
</defs>
</svg>
